<?xml version="1.0" encoding="iso-8859-1"?>
<!-- Generator: Adobe Illustrator 19.0.0, SVG Export Plug-In . SVG Version: 6.00 Build 0)  -->
<svg xmlns="http://www.w3.org/2000/svg" xmlns:xlink="http://www.w3.org/1999/xlink" version="1.1" id="Layer_1" x="0px" y="0px" viewBox="0 0 488.829 488.829" style="enable-background:new 0 0 488.829 488.829;" xml:space="preserve" width="512" height="512">
<g>
	<path style="fill:#FFE563;" d="M333.48,405.045c-31.911,0-57.872-25.961-57.872-57.872s25.961-57.872,57.872-57.872   c31.91,0,57.871,25.961,57.871,57.872S365.39,405.045,333.48,405.045z M333.48,304.302c-23.64,0-42.872,19.232-42.872,42.872   s19.232,42.872,42.872,42.872s42.871-19.232,42.871-42.872S357.12,304.302,333.48,304.302z"/>
	<path style="fill:#E06919;" d="M62.048,117.704h207.768c19.741,0,35.744,16.003,35.744,35.744v3.151   c0,19.741-16.003,35.744-35.744,35.744H62.048c-19.741,0-35.744-16.003-35.744-35.744v-3.151   C26.304,133.707,42.307,117.704,62.048,117.704z"/>
	<path style="fill:#FFCBB3;" d="M328.588,230.994c0,20.455-15.753,37.218-35.784,38.821c-1.045,0.089-2.107,0.133-3.17,0.133   c-2.727,0-5.384-0.275-7.952-0.815H47.058c-2.568,0.54-5.225,0.815-7.952,0.815H39.08c-21.509-0.018-38.927-17.444-38.927-38.953   c0-20.278,15.496-36.934,35.296-38.768c1.204-0.124,2.426-0.177,3.657-0.177c1.638,0,3.241,0.097,4.826,0.292h240.876   c1.585-0.195,3.188-0.292,4.826-0.292c2.311,0,4.578,0.204,6.774,0.593C314.694,195.84,328.588,211.796,328.588,230.994z"/>
	<path style="fill:#E89876;" d="M296.408,192.643v49.34c0,9.581-1.248,18.906-3.604,27.832c-1.045,0.089-2.107,0.133-3.17,0.133   c-2.727,0-5.384-0.275-7.952-0.815H47.058c-2.568,0.54-5.225,0.815-7.952,0.815H39.08c-2.373-8.97-3.63-18.33-3.63-27.964v-49.757   c1.204-0.124,2.426-0.177,3.657-0.177c1.638,0,3.241,0.097,4.826,0.292h240.876c1.585-0.195,3.188-0.292,4.826-0.292   C291.945,192.05,294.212,192.253,296.408,192.643z"/>
	<path style="fill:#E89876;" d="M307.351,239.668c-2.896,0-5.653-1.687-6.882-4.511c-3.133-7.208-12.597-4.903-13.666-4.616   c-3.992,1.13-8.107-1.19-9.237-5.174c-1.132-3.985,1.208-8.139,5.192-9.27c7.938-2.253,24.729-2.418,31.467,13.08   c1.651,3.799-0.089,8.217-3.888,9.868C309.364,239.468,308.349,239.668,307.351,239.668z"/>
	<path style="fill:#E89876;" d="M25.392,239.667c-0.999,0-2.015-0.201-2.989-0.625c-3.798-1.653-5.537-6.072-3.884-9.87   c3.811-8.755,13.714-16.875,30.089-13.412c4.052,0.858,6.642,4.838,5.785,8.89c-0.857,4.052-4.836,6.641-8.89,5.785   c-3.821-0.809-10.621-1.27-13.23,4.723C31.044,237.981,28.287,239.667,25.392,239.667z"/>
	<path style="fill:#27394C;" d="M284.807,438.433v50.394H47.057v-50.394c0-65.652,53.219-118.879,118.871-118.879   c9.289,0,18.33,1.071,27.008,3.082c21.987,5.109,41.628,16.32,57.053,31.737C271.498,375.89,284.807,405.607,284.807,438.433z"/>
	<path style="fill:#3E5268;" d="M284.807,438.433v50.394H101.073v-50.394c0-56.363,39.228-103.569,91.863-115.798   c21.987,5.109,41.628,16.32,57.053,31.737C271.498,375.89,284.807,405.607,284.807,438.433z"/>
	<polyline style="fill:#FFFFFF;" points="107.876,359.673 165.927,477.479 223.979,359.673  "/>
	<polyline style="fill:#FC74AF;" points="114.902,365.733 165.927,430.909 216.952,365.733  "/>
	<polyline style="fill:#BBB8CC;" points="223.779,360.087 197.311,413.798 165.928,379.637 165.93,379.637 134.548,413.798    108.08,360.087  "/>
	<path style="fill:#172635;" d="M165.93,477.479v11.35h-29.2l-30.44-30.44l12.71-26.39H89.67l-15.03-69.69   c6.9-8.29,14.92-15.61,23.82-21.75L165.93,477.479z"/>
	<path style="fill:#172635;" d="M165.924,477.479v11.35h29.2l30.44-30.44l-12.71-26.39h29.33l15.03-69.69   c-6.9-8.29-14.92-15.61-23.82-21.75L165.924,477.479z"/>
	<path style="fill:#E89876;" d="M284.807,174.791v80.953c0,57.93-41.442,106.181-96.299,116.728   c-7.305,1.408-14.859,2.143-22.58,2.143c-65.652,0-118.871-53.219-118.871-118.871v-80.953   c0-65.651,53.219-118.879,118.871-118.879c7.722,0,15.275,0.735,22.58,2.143c23.776,4.569,45.028,16.223,61.481,32.675   C271.498,112.248,284.807,141.965,284.807,174.791z"/>
	<path style="fill:#FFCBB3;" d="M284.807,174.791v80.953c0,57.93-41.442,106.181-96.299,116.728   c-54.857-10.547-96.299-58.798-96.299-116.728v-80.953c0-57.93,41.442-106.19,96.299-116.736   c23.776,4.569,45.028,16.223,61.481,32.675C271.498,112.248,284.807,141.965,284.807,174.791z"/>
	<g>
		<g>
			<path style="fill:#172635;" d="M129.145,247.215c-4.142,0-7.5-3.358-7.5-7.5v-29.22c0-4.142,3.358-7.5,7.5-7.5s7.5,3.358,7.5,7.5     v29.22C136.645,243.857,133.287,247.215,129.145,247.215z"/>
			<path style="fill:#172635;" d="M232.72,247.215c-4.142,0-7.5-3.358-7.5-7.5v-29.22c0-4.142,3.358-7.5,7.5-7.5s7.5,3.358,7.5,7.5     v29.22C240.22,243.857,236.862,247.215,232.72,247.215z"/>
		</g>
	</g>
	<path style="fill:#F9A74D;" d="M277.739,0l-53.33,53.33c-4.517-11.093-15.392-18.921-28.108-18.921   c-10.435,0-19.636,5.269-25.099,13.289c-13.937-17.17-35.204-28.145-59.045-28.145c-42.002,0-76.052,34.05-76.052,76.052   s34.05,76.052,76.052,76.052c17.546,0,33.692-5.958,46.56-15.939c37.768,21.646,86.764,16.361,119.023-15.897   C316.349,101.209,316.349,38.61,277.739,0z"/>
	<path style="fill:#E06919;" d="M81.742,95.605c0,34.048,22.377,62.878,53.224,72.566c-7.187,2.268-14.857,3.485-22.81,3.485   c-42.002,0-76.05-34.048-76.05-76.05s34.049-76.05,76.05-76.05c7.953,0,15.607,1.217,22.81,3.485   C104.118,32.727,81.742,61.556,81.742,95.605z"/>
	<polygon style="fill:#FC74AF;" points="180.007,448.899 165.927,477.479 151.847,448.899 165.927,430.909  "/>
	<path style="fill:#FC74AF;" d="M206.738,289.643c0,14.25-11.55,25.8-25.8,25.8c-14.26,0-25.81-11.55-25.81-25.8   c0-3.63,0.75-6.52,2.12-8.8c3.94-6.68,13.06-8.21,23.69-8.21c10.62,0,19.74,1.53,23.68,8.21   C205.988,283.123,206.738,286.013,206.738,289.643z"/>
	<path style="fill:#FFFFFF;" d="M204.617,280.843c-3.95,6.67-13.07,8.2-23.68,8.2c-10.62,0-19.74-1.53-23.69-8.2   c3.94-6.68,13.06-8.21,23.69-8.21C191.558,272.633,200.678,274.163,204.617,280.843z"/>
	<polygon style="fill:#FFE563;" points="423.299,226.261 423.299,368.679 254.968,328.655 254.968,266.285  "/>
	<path style="fill:#E89876;" d="M349.957,392.403l-16.535,43.867l-52.635-19.84l16.535-43.867c1.827-4.847,7.235-7.286,12.073-5.463   l35.099,13.23C349.332,382.154,351.784,387.556,349.957,392.403z"/>
	<polygon style="fill:#FFA829;" points="423.299,315.032 423.299,368.679 254.968,328.655 254.968,305.884  "/>
	<path style="fill:#FFCBB3;" d="M349.952,392.403l-2.02,5.37c-0.02,0.05-0.04,0.1-0.06,0.15c-3.7,9.59-14.47,14.41-24.11,10.78   l-13.87-5.23l-3.67-1.38c-9.6-3.62-14.5-14.3-11.01-23.93c0.02-0.08,0.05-0.15,0.08-0.23l2.03-5.37c1.82-4.85,7.23-7.29,12.07-5.46   l21.08,7.95c0.04,0.01,0.09,0.02,0.13,0.04l13.89,5.24C349.332,382.153,351.782,387.553,349.952,392.403z"/>
	<polygon style="fill:#3E5268;" points="333.419,436.269 313.609,488.829 253.509,488.829 280.788,416.429  "/>
	<polygon style="fill:#27394C;" points="301.839,424.359 277.538,488.829 253.509,488.829 280.788,416.429  "/>
	<path style="fill:#96EFFF;" d="M481.176,297.183h-36.997c-4.143,0-7.5-3.358-7.5-7.5s3.357-7.5,7.5-7.5h36.997   c4.143,0,7.5,3.358,7.5,7.5S485.319,297.183,481.176,297.183z"/>
	<g>
		<path style="fill:#96EFFF;" d="M444.183,259.186c-2.86,0-5.592-1.645-6.843-4.423c-1.7-3.777-0.018-8.217,3.76-9.918l29-13.057    c3.775-1.7,8.217-0.017,9.918,3.76c1.7,3.777,0.018,8.217-3.76,9.918l-29,13.057C446.259,258.973,445.212,259.186,444.183,259.186    z"/>
		<path style="fill:#96EFFF;" d="M473.175,348.241c-1.03,0-2.076-0.213-3.075-0.663l-29-13.057c-3.777-1.701-5.46-6.141-3.76-9.918    c1.702-3.778,6.146-5.458,9.918-3.76l29,13.057c3.777,1.701,5.46,6.141,3.76,9.918    C478.767,346.596,476.035,348.241,473.175,348.241z"/>
	</g>
</g>















</svg>
